<svg width="26" height="26" viewBox="0 0 26 26" fill="none" xmlns="http://www.w3.org/2000/svg">
<path d="M21.8896 0.900391H3.4707L3.33984 0.911133C3.0814 0.955874 2.84902 1.13229 2.73633 1.36914L2.69043 1.49219V1.49316L0.925781 8.20996L0.924805 8.21094C0.908061 8.27652 0.90026 8.34442 0.900391 8.41211V24.2939C0.900434 24.7188 1.28125 25.0996 1.70605 25.0996H24.2939C24.7188 25.0996 25.0996 24.7188 25.0996 24.2939V15.8232C25.0994 15.3985 24.7187 15.0176 24.2939 15.0176H14.8643V13.3525C14.8673 12.9642 14.5565 12.6025 14.1719 12.5479H14.1699C13.9828 12.5247 13.7888 12.5698 13.6309 12.6729L9.74805 15.1436C9.51333 15.2929 9.40242 15.5634 9.40234 15.8232C9.40234 16.0832 9.51325 16.3545 9.74805 16.5039L13.6299 18.9736L13.6309 18.9746C13.8815 19.1316 14.191 19.0988 14.4307 18.9668C14.6703 18.8348 14.863 18.5906 14.8643 18.2949V16.6289H23.4883V23.4883H2.51172V9.21777H23.4883V12.293L23.4912 12.3721C23.5296 12.7682 23.8919 13.1103 24.2939 13.1104C24.7226 13.1104 25.1055 12.7216 25.0996 12.293V8.41113C25.0992 8.317 25.0825 8.22303 25.0498 8.13477L22.5791 1.41797V1.41699C22.4722 1.13572 22.1981 0.927801 21.8984 0.900391L21.8896 0.899414V0.900391ZM13.2529 16.832L11.6758 15.8232L13.2529 14.8145V16.832ZM12.5469 7.60547H2.75098L4.08789 2.51172H12.5469V7.60547ZM23.1357 7.60547H14.1592V2.51172H21.2578L23.1357 7.60547Z" fill="#9F9F9F" stroke="#9F9F9F" stroke-width="0.2"/>
</svg>
